<svg xmlns="http://www.w3.org/2000/svg" width="512" height="512" viewBox="0 0 512 512" fill="#fff"><path d="m240 32c-26.315 0-48 21.685-48 48v192c0 26.315 21.685 48 48 48h192c26.315 0 48-21.685 48-48v-192c0-26.315-21.685-48-48-48zm0 32h192c9.1407 0 16 6.8593 16 16v192c0 9.1407-6.8593 16-16 16h-192c-9.1407 0-16-6.8593-16-16v-192c0-9.1407 6.8593-16 16-16zm-160 128c-26.315 0-48 21.685-48 48v192c0 26.315 21.685 48 48 48h192c26.315 0 48-21.685 48-48v-80h-32v80c0 9.1407-6.8593 16-16 16h-192c-9.1407 0-16-6.8593-16-16v-192c0-9.1407 6.8593-16 16-16h80v-32z"/></svg>