<svg xmlns="http://www.w3.org/2000/svg" width="512" height="512" viewBox="0 0 512 512"><path d="m254.54 28.478c-4.1305 0.08589-8.4755 0.88008-13.038 2.596-11.599 4.3625-16.953 7.008-20.149 9.804-1.5979 1.398-2.5919 2.88-3.2897 4.274-0.69781 1.394-1.1478 2.6522-1.9066 4.1001-1.8268 3.4857-3.9934 7.7873-6.3841 12.414-2.3907 4.6264-5.0063 9.5771-7.7359 14.361-1.0021 1.7563-1.9272 3.4886-2.7349 5.3835-0.8077 1.895-1.4982 3.9532-2.0317 6.3582-0.53345 2.405-0.91078 5.158-1.0901 8.4445-0.17927 3.2865-0.16101 7.1048 0.0938 11.644 0 0 0.95787 17.283 1.5257 35.628 0.28392 9.1723 0.46981 18.611 0.39071 26.25-0.0395 3.8194-0.14579 7.1926-0.33406 9.8255-0.18827 2.6329-0.54373 4.6465-0.72279 5.1393-1.6639 4.5795-2.341 8.9692-2.6021 12.214-0.0277 0.34506 7e-3 0.25042-0.0117 0.56844-0.77177-1.6343-1.6983-4.1659-2.5904-8.128-0.0188-0.19133-1.4329-14.606-3.1686-29.838-0.87362-7.6664-1.8217-15.488-2.7095-21.735-0.44392-3.1237-0.87197-5.8518-1.2737-7.9952-0.40172-2.1434-0.61519-3.4792-1.262-4.7994-1.2684-2.5892-2.6186-4.8274-4.1922-6.8407-1.5736-2.0134-3.371-3.8016-5.5343-5.4968-2.1907-1.7167-5.5966-4.0829-10.576-5.6863-1.6599-0.53447-3.4941-0.9841-5.5167-1.297-8.0907-1.2518-19.136-0.37424-34.255 5.3562-1.2235 0.46373-2.6348 1.2848-4.0828 2.5335-0.72403 0.62434-1.4564 1.3568-2.1801 2.2034-0.72378 0.84667-1.4395 1.8085-2.1254 2.8949-0.68594 1.0864-1.3286 2.2949-1.9008 3.6294-0.57214 1.3345-1.073 2.7939-1.473 4.3814-0.3999 1.5875-0.69816 3.3036-0.86736 5.1491-0.16921 1.8454-0.20986 3.8202-0.0899 5.9285 0.40967 7.201 0.20999 14.581 0.83416 21.583 0.20805 2.334 0.50685 4.6268 0.95136 6.8564 1.6961 8.5071 5.9136 16.209 14.999 20.852 0.22479 1.6778 1.237 9.3955 1.725 18.629 0.27182 5.1434 0.34061 10.459-0.0313 14.73-0.1082 1.2427-0.36388 2.1177-0.57433 3.1371-0.55676-1.0049-1.0694-1.993-1.8617-3.1039-1.1528-1.6166-2.5727-3.2989-4.3075-4.9108-2.6022-2.4178-5.9344-4.6722-10.106-6.3504-2.7808-1.1188-5.9349-1.9811-9.4941-2.4652-1.7796-0.24201-3.6593-0.39038-5.6457-0.42779-3.9728-0.0748-8.3669 0.28972-13.216 1.217-2.4462 0.46781-4.7205 1.0591-6.8334 1.7561-4.2259 1.394-7.8073 3.2111-10.83 5.3093-1.5115 1.0491-2.8844 2.1683-4.1278 3.3403-1.2434 1.172-2.3573 2.3972-3.3542 3.6567-0.99692 1.2595-1.8768 2.5542-2.649 3.8657-0.7722 1.3116-1.4371 2.6391-2.0063 3.9673-0.56917 1.3282-1.0421 2.656-1.43 3.9654-0.77573 2.6188-1.2375 5.1749-1.4925 7.5342-0.25501 2.3592-0.30376 4.522-0.25591 6.3582 0.09347 3.5869 0.54497 5.7883 0.56652 5.8953 0.0083 0.0639 0.11148 0.89429 0.5802 2.2991 0.24312 0.72866 0.57864 1.5892 1.0393 2.5335 0.46063 0.9443 1.0454 1.9728 1.7875 3.0336 0.74211 1.0608 1.6433 2.1695 2.731 3.2934 1.0877 1.1239 2.363 2.2616 3.8523 3.3794 2.6012 1.9523 6.004 3.8001 10.065 5.4441-0.09646 1.6142-0.33625 5.8691 0.27545 13.701 0.24382 3.1218 0.62389 6.6024 1.2034 10.335 1.4487 9.3323 4.1441 20.239 9.0819 31.043 1.9751 4.3215 4.3099 8.6252 7.0659 12.806 1.378 2.0906 2.8609 4.1516 4.4579 6.1668 3.255 4.1074 7.1568 7.7909 11.493 11.097 2.1679 1.6531 4.4441 3.2123 6.8022 4.6822 2.3581 1.47 4.7994 2.8507 7.2944 4.149 2.495 1.2983 5.044 2.5147 7.6226 3.6528 7.7359 3.4143 15.729 6.1315 23.259 8.3097 5.0194 1.4521 9.8421 2.6585 14.255 3.6489 12.824 2.8781 21.686 3.8701 22.258 3.9341 0.46824 0.25706 10.734 5.8927 25.517 12.808 5.04 2.3578 10.558 4.8384 16.314 7.2666 11.511 4.8563 23.978 9.5039 35.554 12.517 2.8941 0.75334 5.7305 1.4102 8.4861 1.9417 5.5112 1.0628 10.7 1.625 15.384 1.4533 2.2058-0.0808 4.2884-0.33957 6.2513-0.76963 0.0646-3e-3 2.0056-0.0852 5.4816 0.19533 1.7665 0.1426 3.9055 0.37794 6.3509 0.76377 4.8908 0.77168 11.004 2.1443 17.793 4.5768 3.3945 1.2162 6.9585 2.6972 10.623 4.5006 7.3295 3.6067 15.064 8.5015 22.657 15.145 0.10389 0.0986 4.2987 4.078 11.096 9.4426 3.4409 2.7157 7.5298 5.7692 12.055 8.8215 4.5253 3.0523 9.4872 6.1018 14.673 8.8098 2.5928 1.354 5.2441 2.6269 7.9313 3.772 2.6872 1.1451 5.4101 2.1632 8.1462 3.0062 5.4722 1.6862 10.997 2.676 16.392 2.596 4.046-0.0599 8.0214-0.77165 11.78-2.2522 1.2528-0.49353 2.4811-1.0737 3.6804-1.7424 2.3987-1.3375 4.6796-3.0334 6.8002-5.1237 2.1207-2.0903 4.0804-4.5747 5.8371-7.4873 0.87788-1.4555 1.6445-2.9125 2.3032-4.3678 0.65869-1.4553 1.2099-2.9084 1.6605-4.358 2.7033-8.6976 1.758-17.244-1.6468-25.044-1.1349-2.6002-2.5274-5.1256-4.1336-7.5752-1.6063-2.4496-3.4254-4.8224-5.4132-7.1162-3.9756-4.5876-8.6243-8.8594-13.587-12.793-9.9248-7.8666-21.142-14.372-30.967-19.135-4.9124-2.3814-9.435-4.3234-13.317-5.78s-7.1244-2.4279-9.4785-2.8656c-2.0704-0.38498-4.1768-0.86755-6.2962-1.4592-2.1194-0.59163-4.252-1.2912-6.3763-2.1136-10.621-4.1115-21.029-11.258-28.467-22.94-1.4875-2.3364-2.8549-4.8541-4.0829-7.5654-2.4558-5.4227-4.3543-11.652-5.4972-18.788-0.57146-3.568-0.95447-7.3622-1.1233-11.396-0.16879-4.0338-0.12528-8.3071 0.15824-12.832 0.28351-4.5247 0.80664-9.3012 1.5921-14.342 2.3519-15.092 7.0707-32.558 14.812-52.724 0.0772-0.13893 0.91804-1.648 2.524-4.7799 5.0099-9.7705 16.426-33.424 27.785-66.376 0.29367-0.41104 5.8818-8.2398 12.11-18.209 6.1637-9.8667 12.701-21.328 15.046-29.846 1.1561-0.73008 13.647-8.6676 25.65-20.358 3.1416-3.0597 6.2117-6.3452 8.9745-9.8021 2.7628-3.4569 5.2179-7.0858 7.1284-10.83 0.95525-1.8719 1.7735-3.7849 2.4184-5.7234 0.64494-1.9385 1.1154-3.9019 1.3733-5.8738 0.51594-3.9439 0.18305-7.9213-1.3088-11.8-0.72828-1.8936-1.618-3.5726-2.6353-5.0475-2.0345-2.9499-4.5851-5.0831-7.4136-6.4774-1.4142-0.69716-2.8986-1.2091-4.4208-1.5471-1.5222-0.33796-3.076-0.52054-4.6455-0.57429-1.5694-0.05375-3.1549 0.0211-4.7412 0.19924-1.5863 0.17814-3.1723 0.4588-4.7451 0.81651s-3.1322 0.79254-4.6611 1.2775c-3.0579 0.96993-6.0137 2.1568-8.7283 3.393-7.9839 3.6359-13.683 7.5716-13.911 7.7295-0.11115 0.0544-5.7545 2.8149-12.354 6.6122-6.6642 3.8345-14.121 8.4687-18.004 13.004l-0.082 0.09571-0.0723 0.10548s-6.0505 8.7078-13.331 18.288c-7.2803 9.5797-16.14 20.191-20.311 23.155-5.5471 3.943-9.8304 10.344-12.889 15.77-3.059 5.426-4.8467 9.9681-4.8467 9.9681l-0.0176 0.041-0.0156 0.043s-5.3245 15.095-12.381 29.721c-1.7642 3.6564-3.6407 7.2816-5.5539 10.619-1.9132 3.337-3.8635 6.3851-5.7746 8.884-0.95553 1.2494-1.9042 2.3584-2.815 3.2954-0.91077 0.93693-1.7827 1.7017-2.5884 2.262-0.80572 0.56027-1.4974 0.90248-2.0981 1.0802-0.6007 0.17772-1.1106 0.19145-1.557 0.0918-2.6796-0.59833-4.6419-3.1274-6.1067-7.0126-0.73242-1.9426-1.2884-4.1354-1.7211-6.3407-0.43267-2.2052-0.74129-4.4224-0.97676-6.409-1.3453-11.35-1.6986-25.205-1.3284-38.271 0.34079-12.026 1.3443-23.039 2.6998-31.16 0.21372 0.0232 0.14441 0.0392 0.38094 0.0586 1.972 0.16199 4.7107 0.16393 7.7789-0.47467 3.0682-0.6386 6.5182-1.9469 9.9141-4.3131 1.6979-1.1831 3.3824-2.6296 4.999-4.3912 1.6167-1.7616 3.166-3.8365 4.5927-6.2743 2.6656-4.5546 5.0944-8.3575 6.9975-11.791 0.95158-1.7165 1.7711-3.3412 2.4243-4.9206 0.65323-1.5793 1.1391-3.1134 1.4222-4.651 0.28307-1.5376 0.31317-3.0952 0.0625-4.6256-0.25066-1.5304-0.78155-3.0347-1.6234-4.4693-0.84183-1.4346-1.9525-2.805-3.3483-4.1685-1.3958-1.3636-3.0777-2.7209-5.0635-4.1294-5.6141-3.9821-11.425-8.8142-17.83-12.869-2.1348-1.3515-4.3355-2.6165-6.6166-3.7349-4.5622-2.2366-9.4973-3.8497-14.814-4.3326-1.3291-0.12072-2.6826-0.17123-4.0594-0.1426z" fill="#fff"/><path d="m254.47 26.007c-4.4097 0.08625-9.0362 0.91715-13.843 2.725-5.8412 2.197-10.15 3.9578-13.458 5.571-3.3078 1.6132-5.6151 3.0792-7.4585 4.692-0.92175 0.80643-1.6956 1.6739-2.3364 2.5355-0.64082 0.86154-1.1482 1.7169-1.5413 2.5023-0.78635 1.5708-1.2085 2.7623-1.8871 4.0572-3.6853 7.0318-8.6719 17.225-14.077 26.699-2.0366 3.5696-3.8162 7.2667-4.958 12.375-1.1416 5.1071-1.6457 11.624-1.1291 20.831 8e-5 2e-3 -9e-5 2e-3 0 4e-3 2.1e-4 4e-3 0.95716 17.261 1.5237 35.565 0.28333 9.1531 0.46722 18.569 0.38876 26.146-0.0392 3.7886-0.14591 7.1238-0.32819 9.6731-0.18229 2.5493-0.61094 4.5534-0.57824 4.4635-0.30443 0.83788-0.42314 1.596-0.66811 2.4163-0.25226-2.549-1.2969-13.225-2.8697-27.027-0.87503-7.6788-1.8255-15.516-2.7193-21.806-0.44692-3.1447-0.87786-5.8988-1.2913-8.1046-0.41341-2.2057-0.48301-3.4174-1.473-5.4382-1.3223-2.6993-2.781-5.1018-4.4833-7.2783-0.85115-1.0882-1.764-2.1188-2.7506-3.1039-0.98658-0.98512-2.047-1.9242-3.196-2.8246-0.76359-0.59836-1.6854-1.2825-2.774-1.9924-1.0886-0.70997-2.3441-1.4458-3.7722-2.1487-2.8564-1.4058-6.4074-2.6786-10.709-3.3442-2.1509-0.33278-4.482-0.52118-7.0112-0.52546-7.5875-0.0128-16.949 1.6321-28.512 6.0145-2.4051 0.91154-4.9132 2.6242-7.2905 5.4402-0.79245 0.93866-1.57 1.9984-2.3247 3.1938-0.75474 1.1953-1.4575 2.5225-2.0805 3.979-0.62296 1.4566-1.1658 3.043-1.598 4.7584-0.43213 1.7154-0.75346 3.56-0.93574 5.532-0.18227 1.9719-0.22627 4.0717-0.0996 6.2977 0.53597 9.4212-0.0389 19.409 1.8304 28.785 0.9347 4.6882 2.6757 9.3023 5.5265 13.353 2.3611 3.3551 5.5395 6.2834 9.5957 8.589 0.13349 1.0408 0.1944 1.3983 0.42781 3.5434 0.39672 3.6458 0.86083 8.5616 1.1291 13.638 0.20069 3.7975 0.21814 7.5277 0.0996 10.949-0.86242-1.0274-1.5998-2.0588-2.6763-3.059-4.6739-4.3426-11.565-8.1292-20.959-9.425-3.7577-0.51833-7.9164-0.63902-12.493-0.23636-2.2882 0.20132-4.6815 0.53382-7.1811 1.0118-5.087 0.9728-9.4969 2.4889-13.302 4.3892-1.9023 0.95016-3.652 1.9968-5.2608 3.1196-8.0441 5.6136-12.533 13.137-14.595 20.098-0.82487 2.7847-1.315 5.4979-1.5843 8.001-0.26928 2.5031-0.31907 4.796-0.26568 6.7411 0.10206 3.7177 0.55748 5.8947 0.59973 6.1043 0.02734 0.1892 0.35955 2.4657 1.8441 5.5574 0.51542 1.0734 1.1632 2.225 1.9789 3.3911 0.81572 1.166 1.8024 2.3767 2.983 3.5942 2.9698 3.0626 7.3614 6.112 13.176 8.6925-0.15494 3.7518-0.28316 11.18 1.5062 22.757 1.473 9.5302 4.2301 20.682 9.3027 31.758 1.0145 2.2151 2.1228 4.4264 3.3308 6.622 2.4159 4.3911 5.2346 8.7171 8.5232 12.867 1.7053 2.1518 3.5698 4.1853 5.5656 6.1082 9.9787 9.6145 23.255 16.46 36.502 21.46 5.2984 1.9999 10.592 3.7042 15.667 5.1725 5.0756 1.4684 9.9541 2.6867 14.417 3.688 12.559 2.8176 20.902 3.7753 22.002 3.9009 1.2251 0.67115 19.257 10.525 41.649 19.971 11.581 4.8858 24.136 9.5713 35.896 12.633 2.9401 0.76531 5.8261 1.4394 8.6424 1.9885 8.1093 1.5811 15.615 2.0675 22.2 0.71298 0.0575-2e-3 1.9442-0.084 5.3175 0.18753 1.712 0.1378 3.7876 0.3653 6.1594 0.74033 4.7437 0.75005 10.675 2.0873 17.273 4.4596 3.2989 1.1861 6.764 2.6312 10.33 4.3912 3.5662 1.76 7.2351 3.8341 10.938 6.2801 3.7026 2.4461 7.4405 5.2646 11.149 8.5089 0.20568 0.19537 4.3485 4.1234 11.149 9.4934 5.2282 4.1286 11.944 9.0333 19.438 13.558 2.4979 1.5084 5.0836 2.975 7.7281 4.356 7.9336 4.143 16.453 7.5999 25.054 8.9973 2.8669 0.46578 5.7432 0.7027 8.6092 0.66023 1.433-0.0212 2.8647-0.12381 4.286-0.31058 4.2641-0.56031 8.4411-1.8809 12.335-4.0533 3.8935-2.1724 7.5032-5.1974 10.627-9.1652 1.0413-1.3226 2.0275-2.75 2.9537-4.2857 4.6262-7.67 6.3063-15.548 5.7453-23.06-0.1122-1.5024-0.31392-2.9911-0.59973-4.4596-0.57165-2.9368-1.4798-5.7964-2.6783-8.5421-1.1984-2.7457-2.6567-5.3955-4.329-7.9502-1.6723-2.5548-3.5584-5.0141-5.6105-7.3818-4.1041-4.7354-8.8732-9.1009-13.932-13.111-10.119-8.0203-21.473-14.597-31.43-19.424-9.9576-4.8273-18.181-7.8788-23.429-8.8547-1.9997-0.37185-4.0308-0.83542-6.0715-1.4025-4.0815-1.1342-8.2041-2.6838-12.204-4.7428-7.9992-4.118-15.507-10.276-21.209-19.243-1.4257-2.2417-2.7372-4.66-3.9168-7.2646-1.1796-2.6046-2.2287-5.4135-3.1217-8.4386-0.89306-3.0252-1.6316-6.2661-2.186-9.7376-0.55441-3.4715-0.92642-7.1729-1.0901-11.117-0.49094-11.831 0.89424-25.846 4.8584-42.394 1.3214-5.516 2.93-11.313 4.8506-17.405 1.8989-6.0229 4.1144-12.345 6.6498-18.956 0.47232-0.85234 8.7794-15.92 19.268-41.703 3.5117-8.6327 7.2517-18.5 10.979-29.287 0.57348-0.80434 5.8902-8.2795 11.995-18.051 4.8298-7.7314 9.9642-16.373 13.19-24.155 0.78557-1.895 1.305-3.6608 1.8324-5.4284 1.5694-1.0014 7.4664-4.7761 15.704-11.58 3.1154-2.5729 6.393-5.458 9.5937-8.5753 4.8011-4.6761 9.4706-9.8832 13.2-15.516 1.2431-1.8775 2.381-3.802 3.3855-5.7703 1.0045-1.9683 1.874-4.0043 2.563-6.0867 0.68906-2.0825 1.198-4.2119 1.4769-6.3622 0.55781-4.3006 0.19979-8.6887-1.4515-12.982-0.79028-2.0548-1.7788-3.9037-2.9225-5.5417-1.1436-1.6381-2.4425-3.0664-3.8543-4.2857-2.8236-2.4386-6.097-4.0381-9.4824-4.7897-3.3854-0.7516-6.8193-0.81183-10.201-0.4317-1.691 0.19007-3.3701 0.49077-5.0225 0.86925-1.6524 0.37849-3.2795 0.83612-4.8682 1.34-12.329 3.9106-22.468 10.888-23.087 11.316-0.20561 0.10068-5.774 2.8218-12.399 6.6337-3.373 1.9408-6.9328 4.0374-10.201 6.2938-1.6342 1.1282-3.195 2.2978-4.624 3.5063-1.429 1.2085-2.7246 2.4569-3.8289 3.7466-0.10952 0.12756-0.21253 0.26056-0.30865 0.39849 0 0-6.0259 8.6738-13.268 18.204-5.4318 7.1473-11.942 14.955-16.279 19.422-1.4454 1.4891-2.6492 2.6072-3.4909 3.2055-6.1202 4.3504-10.471 10.999-13.618 16.58-1.5734 2.7909-2.823 5.3612-3.6785 7.2334-0.85551 1.8722-1.3167 3.0473-1.3167 3.0473-0.0225 0.0562-0.044 0.11291-0.0645 0.16994 0 0-1.3237 3.7498-3.5202 9.3078-2.1966 5.5581-5.2664 12.923-8.7557 20.155-3.4892 7.2315-7.4312 14.322-11.063 19.071-1.8158 2.3742-3.5722 4.1392-4.8447 5.0241-1.2725 0.88488-1.6794 0.78585-1.682 0.78526-0.75401-0.16836-1.4997-0.65391-2.2231-1.5354-0.72344-0.88143-1.4251-2.1593-2.0883-3.9185-1.3265-3.5183-2.092-8.2558-2.5552-12.164-0.66189-5.5844-1.0778-11.82-1.2815-18.284-0.20369-6.4636-0.19414-13.154-0.01-19.643 0.1846-6.4896 0.54602-12.779 1.049-18.442 0.34916-3.9305 0.84459-7.007 1.3186-10.191 1.9002 0.0373 4.0393-0.0366 6.4818-0.54499 1.6756-0.34874 3.4589-0.88798 5.2843-1.6623 5.4761-2.323 11.34-6.7604 15.87-14.502 3.9672-6.7787 7.5193-11.874 9.5976-16.989 0.69277-1.7047 1.2211-3.4128 1.5472-5.1843 0.48919-2.6572 0.29845-5.5296-0.65443-8.2101-0.31763-0.89347-0.71897-1.7664-1.2092-2.6019-0.98051-1.6709-2.2279-3.206-3.7468-4.6901-1.519-1.484-3.3098-2.9172-5.3741-4.3814-3.6708-2.6037-7.4869-5.6369-11.577-8.6046-2.0448-1.4839-4.1574-2.9523-6.3548-4.3404-2.1974-1.3881-4.4789-2.6961-6.8608-3.8638-2.3818-1.1677-4.8907-2.1766-7.5132-2.9574-2.6226-0.78077-5.359-1.3337-8.1989-1.5901-1.42-0.12815-2.8669-0.18307-4.3368-0.15432zm0.14847 4.9401c2.567-0.05698 5.0388 0.18517 7.4312 0.6661 1.1962 0.24047 2.3725 0.53963 3.53 0.89269 4.6302 1.4122 8.9656 3.6676 13.11 6.2977 2.0722 1.315 4.0965 2.7241 6.0872 4.1685 3.9814 2.8888 7.8263 5.9184 11.641 8.6242 5.7221 4.0587 8.4402 7.4769 9.037 11.132 0.19893 1.2185 0.16187 2.4643-0.0781 3.7681-0.24001 1.3037-0.68149 2.6657-1.2952 4.1197-1.8411 4.362-5.2185 9.5468-9.248 16.432-0.67158 1.1475-1.3664 2.2048-2.0805 3.1801-0.71411 0.97527-1.4465 1.8694-2.1919 2.6859-0.74535 0.81645-1.5046 1.5558-2.27 2.2269-2.296 2.0131-4.656 3.4027-6.9291 4.3482-10.92 4.5419-38.957-0.4735-57.262-14.896 0 0 13.681 18.735 42.188 21.749l0.0352-8e-3c-0.42478 3.0024-0.81809 6.2034-1.137 9.7356-1.0455 11.582-1.4819 25.528-1.049 38.663 0.10821 3.2839 0.2714 6.5166 0.49229 9.6497 0.2209 3.1331 0.50026 6.167 0.84197 9.05 0.59836 5.0484 1.635 11.672 4.2098 16.35 1.0299 1.8711 2.3073 3.4307 3.8992 4.4537 0.79596 0.51152 1.6706 0.88868 2.6334 1.1037 1.7827 0.39806 3.6777-0.20258 5.6281-1.5588 2.9255-2.0343 5.9758-5.7685 8.9647-10.38 2.9889-4.6118 5.9158-10.101 8.5916-15.647 1.7838-3.6971 3.4567-7.42 4.962-10.923 4.5157-10.51 7.5269-19.051 7.5269-19.051s5.2891-13.433 13.276-21.528c1.141-1.1565 2.3373-2.2044 3.5808-3.0883 1.2435-0.8839 2.7125-2.2051 4.329-3.8384 8.0824-8.1665 19.882-24.164 25.966-32.639 2.4335-3.3902 3.952-5.5769 3.952-5.5769 0.83721-0.97778 1.9286-2.0089 3.1979-3.0649 8.8856-7.3914 26.482-15.996 26.482-15.996s5.861-4.0457 13.751-7.6416c3.9449-1.798 8.3981-3.4839 12.878-4.4947 1.4932-0.33694 2.9881-0.59951 4.4696-0.76572 2.9631-0.33244 5.8684-0.28185 8.5721 0.3184 1.3518 0.30012 2.6538 0.73841 3.8875 1.3342 2.4674 1.1915 4.6628 3.0156 6.4447 5.6394 0.89092 1.3119 1.678 2.8229 2.3442 4.5553 0.66628 1.7324 1.0766 3.4914 1.262 5.2644 1.6681 15.956-14.955 33.152-28.521 44.355-3.0147 2.4896-5.8788 4.6824-8.3572 6.5008-4.9567 3.637-8.3708 5.7722-8.3708 5.7722s-16.889 3.6147-31.028-7.9561c0 0 9.912 14.469 28.873 14.209-0.0499 0.12071-0.0641 0.21242-0.11525 0.33402-1.0075 2.3975-2.2391 4.9646-3.6082 7.6045-1.369 2.6399-2.8764 5.3509-4.4384 8.0382-1.562 2.6873-3.178 5.35-4.7646 7.8897-6.3464 10.159-12.215 18.358-12.215 18.358-1.8928 5.5037-3.7877 10.747-5.6535 15.707-13.06 34.72-24.724 55.617-24.724 55.617-3.9094 10.174-7.0605 19.682-9.5332 28.564-1.6484 5.9217-2.9945 11.566-4.0633 16.944-0.53442 2.6889-1.0004 5.3107-1.3987 7.8682-1.9918 12.787-2.3197 23.952-1.3518 33.68 0.19357 1.9456 0.44026 3.8326 0.73452 5.6648 0.29427 1.8322 0.63653 3.6089 1.0256 5.3308 1.1672 5.1657 2.7487 9.8411 4.663 14.068 10.21 22.545 29.914 32.322 47.043 35.507 3.1262 0.58132 8.5776 2.3927 15.196 5.2448 2.2063 0.9507 4.5413 2.0172 6.9643 3.1918 2.4229 1.1746 4.9339 2.458 7.4878 3.8423 2.5539 1.3843 5.1504 2.87 7.7496 4.4498 2.5992 1.5798 5.2006 3.2532 7.7594 5.0143 2.5588 1.7611 5.0766 3.6096 7.5093 5.5378 2.4327 1.9282 4.7805 3.9372 7.0014 6.0184 5.5524 5.2029 10.309 10.86 13.6 16.864 0.65829 1.2006 1.2576 2.4157 1.7933 3.643s1.008 2.467 1.4104 3.7192c0.40242 1.2522 0.73592 2.5181 0.99434 3.7935 0.25843 1.2754 0.44132 2.5612 0.54503 3.8579 0.10371 1.2968 0.12813 2.6041 0.0664 3.9204-0.0617 1.3163-0.20953 2.641-0.44736 3.9751-0.71353 4.0025-2.2438 8.0817-4.7353 12.213-0.83052 1.3769-1.7018 2.6486-2.6099 3.8188-0.90812 1.1702-1.8535 2.2393-2.8326 3.2133-2.9372 2.9221-6.1774 4.9844-9.6328 6.3309-2.3036 0.89769-4.7024 1.4764-7.1694 1.7795-6.1676 0.75771-12.763-0.21005-19.367-2.2444-5.2837-1.6275-10.573-3.9367-15.656-6.5907-5.0823-2.654-9.9579-5.6529-14.411-8.6574-4.4532-3.0044-8.4849-6.0155-11.881-8.6945-6.7929-5.3579-11.045-9.388-11.045-9.3879-1.9423-1.6993-3.8932-3.2868-5.8469-4.7702-1.9537-1.4834-3.9093-2.863-5.8567-4.1451s-3.8864-2.4676-5.8098-3.563c-3.8467-2.1908-7.6294-4.0216-11.274-5.5535-1.8222-0.76594-3.6095-1.4572-5.3546-2.0804-6.9803-2.4926-13.272-3.9026-18.31-4.6959-7.557-1.19-12.292-0.99427-12.292-0.99427-7.4979 1.7456-17.904 0.42416-29.297-2.5414-5.6962-1.4828-11.639-3.3765-17.588-5.5027-29.744-10.631-59.641-27.08-59.641-27.08s-9.4227-1.0308-22.51-3.9693c-10.906-2.4487-24.358-6.2219-37.019-11.828-2.5322-1.1212-5.0318-2.3146-7.4742-3.5864-2.4424-1.2718-4.8272-2.6227-7.1264-4.0533-6.8978-4.2917-13.032-9.3149-17.681-15.182-1.5498-1.9556-2.989-3.9567-4.327-5.9891-5.3523-8.1295-9.0733-16.767-11.651-25.064-0.64438-2.0742-1.2157-4.1271-1.725-6.1453-1.0185-4.0365-1.7823-7.9356-2.352-11.589-1.1396-7.3075-1.5045-13.636-1.5843-18.139-0.01198-0.67636 0.02033-0.48723 0.01953-1.0783 45.37 11.162 45.89-31.781 45.89-31.781-11.205 40.276-45.785 25.681-45.785 25.681-4.7121-1.72-8.3262-3.7505-11.096-5.8289-1.3849-1.0392-2.5586-2.0913-3.5535-3.1215-0.99485-1.0302-1.8105-2.039-2.479-2.9945-2.674-3.8223-2.9908-6.7841-2.9908-6.7841s-1.3716-6.8245 0.23247-15.104c0.22916-1.1827 0.51775-2.3951 0.88104-3.6216 0.36329-1.2264 0.79976-2.4667 1.3225-3.7056 0.52278-1.2388 1.1326-2.4758 1.8402-3.6958 0.70761-1.22 1.5143-2.4225 2.4321-3.5923 1.8356-2.3396 4.1163-4.5479 6.9448-6.4989 2.8284-1.951 6.2046-3.6458 10.229-4.9577 2.012-0.65595 4.1856-1.2151 6.5345-1.6643 7.0469-1.3476 13.011-1.4813 18.052-0.80675 5.0411 0.67455 9.1592 2.1556 12.51 4.0357 1.1171 0.62668 2.1495 1.2982 3.1022 1.9983 2.8581 2.1004 5.0017 4.4636 6.5912 6.6806 1.0596 1.478 1.8721 2.8904 2.4849 4.1177 0.6128 1.2273 1.0258 2.2696 1.2854 3.0043 0.25959 0.73464 0.36726 1.1623 0.36726 1.1623 0.3973-0.37693 0.74707-0.88183 1.0569-1.4963 3.4251-6.7938 1.7568-26.912 0.64271-37.089l0.0156 0.0117c46.548 16.823 56.608-22.322 56.693-22.655 1.2532 11.528 2.1958 20.886 2.1958 20.886 1.3378 5.9922 2.7222 9.218 3.9285 10.91 0.40209 0.56388 0.78432 0.95815 1.1389 1.2267 1.4183 1.0743 2.3892 0.15041 2.3892 0.15041s-0.56165-7.9241 2.565-16.53c0.19542-0.53784 0.36429-1.3116 0.50792-2.2913 0.14363-0.97974 0.26233-2.1656 0.35945-3.5239 1.3597-19.016-1.5804-72.019-1.5804-72.019-0.37676-6.711-0.25976-11.7 0.24029-15.678 0.50004-3.9782 1.3838-6.9474 2.5435-9.6184 0.77309-1.7807 1.6691-3.4292 2.6548-5.1569 5.5133-9.663 10.539-19.942 14.161-26.853 0.83912-1.6011 1.3208-2.9241 1.9301-4.1412 0.91391-1.8257 2.116-3.4158 5.2491-5.362 1.0444-0.64874 2.3045-1.3366 3.8387-2.0862 3.0684-1.4993 7.2374-3.2434 12.995-5.4089 1.4394-0.54137 2.8492-0.98811 4.2333-1.3439 2.7682-0.71164 5.4307-1.0662 7.9977-1.1232zm-105.32 76.75c5.3874-0.18483 9.7014 0.5324 13.161 1.6389 3.0751 0.98354 5.4756 2.2737 7.3531 3.5102 0.93875 0.61826 1.747 1.2237 2.4439 1.7698 4.0572 3.1793 6.5945 6.5122 9.0233 11.47 0.60722 1.2395 1.4233 5.8412 2.3052 12.046 0.71833 5.0546 1.4079 11.587 2.1372 17.819-11.257 52.918-55.88 29.494-55.88 29.494-2.3278-1.0556-4.3158-2.2894-6.0149-3.6782-0.84951-0.6944-1.627-1.4284-2.3384-2.1976-1.4227-1.5383-2.5819-3.2209-3.5281-5.0241-5.2041-9.9174-3.9682-23.495-4.7334-36.944-0.22649-3.9813 0.14377-7.4084 0.87908-10.328 0.36767-1.4596 0.8266-2.7921 1.3479-4.0044 0.52133-1.2124 1.1059-2.3043 1.723-3.2817 2.4686-3.9097 5.4724-5.9883 7.1596-6.6278 3.7055-1.4044 7.1448-2.5074 10.34-3.352 3.1952-0.84461 6.1457-1.4318 8.869-1.8069 2.0424-0.28131 3.9573-0.44236 5.7531-0.50396z" fill="#b2b2b2"/></svg>