<svg xmlns="http://www.w3.org/2000/svg" width="512" height="512" viewBox="0 0 512 512"><path d="m254.54 28.477-0.00196 0.001954c-4.1305 0.08589-8.4746 0.87978-13.037 2.5957-11.599 4.3625-16.952 7.0087-20.148 9.8047-1.5979 1.398-2.5932 2.8794-3.291 4.2734-0.69781 1.394-1.1474 2.6517-1.9062 4.0996-1.8268 3.4857-3.9921 7.7874-6.3828 12.414-2.3907 4.6264-5.0067 9.5774-7.7363 14.361-1.0021 1.7563-1.9267 3.4879-2.7344 5.3828-0.80769 1.895-1.4997 3.9544-2.0332 6.3594-0.53345 2.405-0.91052 5.1569-1.0898 8.4434-0.17927 3.2865-0.16106 7.1053 0.09375 11.645 0 0 0.95756 17.282 1.5254 35.627 0.28392 9.1723 0.46972 18.611 0.39062 26.25-0.0395 3.8194-0.14571 7.1933-0.33398 9.8262-0.18827 2.6329-0.5436 4.6459-0.72266 5.1387-1.6639 4.5795-2.3405 8.97-2.6016 12.215-0.0277 0.34506 0.00698 0.25034-0.01172 0.56836-0.77177-1.6343-1.6977-4.1649-2.5898-8.127-0.0188-0.19133-1.4342-14.608-3.1699-29.84-0.87362-7.6664-1.8212-15.487-2.709-21.734-0.44392-3.1237-0.87171-5.8507-1.2734-7.9941-0.40172-2.1434-0.61491-3.4806-1.2617-4.8008-1.2684-2.5892-2.6198-4.8266-4.1934-6.8398-1.5736-2.0134-3.3699-3.8009-5.5332-5.4961-2.1907-1.7167-5.5968-4.0841-10.576-5.6875-1.6599-0.53447-3.495-0.98397-5.5176-1.2969-8.0907-1.2518-19.135-0.37497-34.254 5.3555-1.2235 0.46373-2.636 1.2865-4.084 2.5352-0.72403 0.62434-1.456 1.3565-2.1797 2.2031-0.72377 0.84666-1.4391 1.8081-2.125 2.8945-0.68593 1.0864-1.3282 2.2944-1.9004 3.6289-0.57214 1.3345-1.0726 2.7934-1.4726 4.3809-0.3999 1.5875-0.69799 3.3049-0.86719 5.1504-0.16921 1.8454-0.2098 3.8194-0.08984 5.9277 0.40967 7.201 0.20981 14.582 0.83398 21.584 0.20805 2.334 0.50666 4.6259 0.95117 6.8555 1.6961 8.5071 5.9127 16.209 14.998 20.852 0.22479 1.6778 1.2366 9.3954 1.7246 18.629 0.27182 5.1434 0.34066 10.459-0.03125 14.73-0.1082 1.2427-0.36377 2.1173-0.57422 3.1367-0.55676-1.0049-1.069-1.9926-1.8613-3.1035-1.1528-1.6166-2.5718-3.2983-4.3066-4.9102-2.6022-2.4178-5.9358-4.6734-10.107-6.3516-2.7808-1.1188-5.9349-1.9807-9.4941-2.4648-1.7796-0.24201-3.6581-0.39033-5.6445-0.42774-3.9728-0.0748-8.3677 0.28952-13.217 1.2168-2.4462 0.46781-4.7191 1.0589-6.832 1.7559-4.2259 1.394-7.8074 3.2124-10.83 5.3106-1.5115 1.0491-2.8855 2.1678-4.1289 3.3398s-2.3566 2.3968-3.3535 3.6562c-0.99692 1.2595-1.8762 2.5557-2.6484 3.8672-0.7722 1.3116-1.4386 2.6386-2.0078 3.9668-0.56917 1.3282-1.0418 2.6554-1.4297 3.9648-0.77573 2.6188-1.2372 5.1759-1.4922 7.5352-0.25501 2.3592-0.30371 4.5212-0.25586 6.3574 0.09347 3.5869 0.54486 5.7875 0.56641 5.8945 0.0083 0.0639 0.11136 0.89597 0.58008 2.3008 0.24312 0.72866 0.5784 1.5889 1.0391 2.5332 0.46063 0.9443 1.045 1.9724 1.7871 3.0332 0.74211 1.0608 1.6447 2.1691 2.7324 3.293 1.0877 1.1239 2.3623 2.2611 3.8516 3.3789 2.6012 1.9523 6.0035 3.8013 10.064 5.4453-0.09646 1.6142-0.33631 5.8693 0.27539 13.701 0.24382 3.1218 0.62557 6.6014 1.2051 10.334 1.4487 9.3323 4.1423 20.239 9.0801 31.043 1.9751 4.3215 4.3104 8.6258 7.0664 12.807 1.378 2.0906 2.862 4.1508 4.459 6.166 3.255 4.1074 7.156 7.7916 11.492 11.098 2.1679 1.6531 4.4446 3.2117 6.8027 4.6816 2.3581 1.47 4.7999 2.8501 7.2949 4.1484s5.0425 2.5162 7.6211 3.6543c7.7359 3.4143 15.73 6.1304 23.26 8.3086 5.0194 1.4521 9.841 2.66 14.254 3.6504 12.824 2.8781 21.688 3.8696 22.26 3.9336 0.46824 0.25706 10.733 5.8914 25.516 12.807 5.04 2.3578 10.558 4.8394 16.314 7.2676 11.511 4.8563 23.979 9.5045 35.555 12.518 2.8941 0.75334 5.7307 1.4099 8.4863 1.9414 5.5112 1.0628 10.699 1.6248 15.383 1.4531 2.2058-0.0808 4.289-0.33947 6.252-0.76953 0.0646-3e-3 2.0045-0.08522 5.4805 0.19531 1.7665 0.1426 3.9062 0.37785 6.3516 0.76368 4.8908 0.77167 11.004 2.1437 17.793 4.5762 3.3945 1.2162 6.9586 2.6986 10.623 4.502 7.3295 3.6067 15.063 8.501 22.656 15.145 0.10389 0.0986 4.3004 4.0768 11.098 9.4414 3.4409 2.7157 7.5295 5.77 12.055 8.8223 4.5253 3.0523 9.4861 6.1026 14.672 8.8106 2.5928 1.354 5.2444 2.6264 7.9316 3.7715 2.6872 1.1451 5.4104 2.1629 8.1465 3.0059 5.4722 1.6862 10.998 2.6757 16.393 2.5957 4.046-0.0599 8.0207-0.77141 11.779-2.252 1.2528-0.49353 2.4804-1.0735 3.6797-1.7422 2.3987-1.3375 4.6802-3.0328 6.8008-5.123 2.1207-2.0903 4.0812-4.5757 5.8379-7.4883 0.87787-1.4555 1.644-2.9119 2.3027-4.3672 0.65869-1.4553 1.2096-2.9078 1.6602-4.3574 2.7033-8.6976 1.7583-17.245-1.6465-25.045-1.1349-2.6002-2.5266-5.1246-4.1328-7.5742-1.6063-2.4496-3.4263-4.8234-5.4141-7.1172-3.9756-4.5876-8.6252-8.8594-13.588-12.793-9.9248-7.8666-21.142-14.372-30.967-19.135-4.9124-2.3814-9.4344-4.3227-13.316-5.7793-3.882-1.4566-7.1244-2.4295-9.4785-2.8672-2.0704-0.38498-4.1775-0.86733-6.2969-1.459-2.1194-0.59163-4.2507-1.2909-6.375-2.1133-8.5914-3.3258-17.016-8.6875-23.869-16.779h25.611c12.465 0 22.5-10.035 22.5-22.5v-100c0-12.465-10.035-22.5-22.5-22.5h-13.99c5.6153-12.263 12.701-28.939 19.949-49.965 0.29367-0.41104 5.8812-8.2398 12.109-18.209 6.1637-9.8667 12.702-21.328 15.047-29.846 1.1561-0.73008 13.645-8.667 25.648-20.357 3.1416-3.0597 6.2118-6.3458 8.9746-9.8027 2.7628-3.4569 5.2184-7.0859 7.1289-10.83 0.95525-1.8719 1.7731-3.7842 2.418-5.7227 0.64494-1.9385 1.1151-3.9011 1.373-5.873 0.51594-3.9439 0.18326-7.9221-1.3086-11.801-0.72828-1.8936-1.6175-3.572-2.6348-5.0469-2.0345-2.9499-4.5856-5.0842-7.4141-6.4785-1.4142-0.69716-2.8977-1.2089-4.4199-1.5469-1.5222-0.33796-3.077-0.52047-4.6465-0.57422-1.5694-0.05375-3.1539 0.021079-4.7402 0.19922-1.5863 0.17814-3.1733 0.4587-4.7461 0.81641-1.5728 0.35771-3.1313 0.79238-4.6602 1.2773-3.0579 0.96993-6.0139 2.1564-8.7285 3.3926-7.9839 3.6359-13.684 7.5726-13.912 7.7305-0.11115 0.0544-5.754 2.814-12.354 6.6113-6.6642 3.8345-14.121 8.4686-18.004 13.004l-0.08203 0.095703-0.07226 0.10742s-6.0496 8.7069-13.33 18.287c-7.2803 9.5797-16.142 20.19-20.312 23.154-5.5471 3.943-9.8301 10.345-12.889 15.771-3.059 5.426-4.8457 9.9668-4.8457 9.9668l-0.01757 0.04101-0.01563 0.04297s-5.3244 15.095-12.381 29.721c-1.7642 3.6564-3.6415 7.2817-5.5547 10.619-1.9132 3.337-3.8623 6.3859-5.7734 8.8848-0.95553 1.2494-1.9056 2.3579-2.8164 3.2949-0.91077 0.93693-1.7822 1.7014-2.5879 2.2617-0.80572 0.56027-1.497 0.90236-2.0977 1.0801s-1.1102 0.19145-1.5566 0.0918c-2.6796-0.59833-4.6426-3.1265-6.1074-7.0117-0.73242-1.9426-1.288-4.1365-1.7207-6.3418-0.43267-2.2052-0.7411-4.4216-0.97657-6.4082-1.3453-11.35-1.6983-25.206-1.3281-38.271 0.34079-12.026 1.3437-23.039 2.6992-31.16 0.21372 0.0232 0.14433 0.03919 0.38086 0.05859 1.972 0.16199 4.7111 0.16399 7.7793-0.47461 3.0682-0.6386 6.5182-1.9463 9.9141-4.3125 1.6979-1.1831 3.3814-2.629 4.998-4.3906 1.6167-1.7616 3.1671-3.8376 4.5938-6.2754 2.6656-4.5546 5.093-8.3575 6.9961-11.791 0.95158-1.7165 1.7726-3.3405 2.4258-4.9199 0.65323-1.5793 1.1388-3.1128 1.4219-4.6504 0.28307-1.5376 0.31317-3.0966 0.0625-4.627-0.25066-1.5304-0.78119-3.0342-1.623-4.4688-0.84183-1.4346-1.9538-2.8045-3.3496-4.168-1.3958-1.3636-3.0767-2.7204-5.0625-4.1289-5.6141-3.9821-11.425-8.8143-17.83-12.869-2.1348-1.3515-4.3361-2.6179-6.6172-3.7363-4.5622-2.2366-9.4978-3.8491-14.814-4.332-1.3291-0.12072-2.6818-0.17121-4.0586-0.14258z" fill="#fff"/><path d="m254.47 26.004 0.00195 0.003906c-4.4097 0.08625-9.037 0.91677-13.844 2.7246-5.8412 2.197-10.149 3.9571-13.457 5.5703-3.3078 1.6132-5.6156 3.0786-7.459 4.6914-0.92175 0.80643-1.6951 1.6755-2.3359 2.5371-0.64082 0.86154-1.1499 1.7166-1.543 2.502-0.78635 1.5708-1.2081 2.7617-1.8867 4.0566-3.6853 7.0318-8.6711 17.225-14.076 26.699-2.0366 3.5696-3.8172 7.2667-4.959 12.375-1.1416 5.1071-1.6455 11.623-1.1289 20.83 8e-5 2e-3 -9e-5 0.00191 0 0.00391 2.1e-4 4e-3 0.9569 17.262 1.5234 35.566 0.28333 9.1531 0.46713 18.57 0.38867 26.146-0.0392 3.7886-0.14585 7.1226-0.32813 9.6719-0.18229 2.5493-0.61082 4.5528-0.57812 4.4629-0.30443 0.83788-0.423 1.5977-0.66797 2.418-0.25226-2.549-1.2963-13.225-2.8691-27.027-0.87503-7.6788-1.825-15.517-2.7188-21.807-0.44692-3.1447-0.87953-5.8977-1.293-8.1035-0.41341-2.2057-0.48267-3.4186-1.4727-5.4394-1.3223-2.6993-2.7801-5.1009-4.4824-7.2773-0.85115-1.0882-1.7634-2.1184-2.75-3.1035-0.98658-0.98512-2.0483-1.9258-3.1973-2.8262-0.76359-0.59836-1.6848-1.2823-2.7734-1.9922-1.0886-0.70997-2.3434-1.4455-3.7715-2.1484-2.8564-1.4058-6.4074-2.6782-10.709-3.3438-2.1509-0.33278-4.4825-0.52111-7.0117-0.52539-7.5875-0.0128-16.949 1.6313-28.512 6.0137-2.4051 0.91154-4.9137 2.6254-7.291 5.4414-0.79245 0.93866-1.5695 1.998-2.3242 3.1934-0.75474 1.1953-1.459 2.522-2.082 3.9785-0.62296 1.4566-1.1655 3.0424-1.5977 4.7578-0.43213 1.7154-0.75327 3.5612-0.93555 5.5332-0.18224 1.9719-0.22627 4.0709-0.0996 6.2969 0.53597 9.4212-0.0392 19.409 1.8301 28.785 0.9347 4.6882 2.6766 9.3028 5.5274 13.354 2.3611 3.3551 5.5395 6.2823 9.5957 8.5879 0.13349 1.0408 0.19433 1.3998 0.42774 3.5449 0.39669 3.6458 0.86063 8.5603 1.1289 13.637 0.20069 3.7975 0.21815 7.5279 0.09961 10.949-0.86242-1.0274-1.5993-2.0584-2.6758-3.0586-4.6739-4.3426-11.565-8.13-20.959-9.4258-3.7577-0.51833-7.9175-0.63899-12.494-0.23633-2.2882 0.20132-4.6801 0.53374-7.1797 1.0117-5.087 0.9728-9.4976 2.4903-13.303 4.3906-1.9023 0.95016-3.6529 1.9963-5.2617 3.1191-8.0441 5.6136-12.532 13.137-14.594 20.098-0.82487 2.7847-1.3147 5.4989-1.584 8.002-0.26928 2.5031-0.31902 4.7951-0.26562 6.7402 0.10206 3.7177 0.55736 5.8939 0.59961 6.1035 0.02734 0.1892 0.3592 2.4669 1.8438 5.5586 0.51542 1.0734 1.1628 2.2245 1.9785 3.3906 0.81572 1.166 1.8018 2.3762 2.9824 3.5938 2.9698 3.0626 7.3632 6.1129 13.178 8.6934-0.15494 3.7518-0.2835 11.179 1.5059 22.756 1.473 9.5302 4.2301 20.684 9.3027 31.76 1.0145 2.2151 2.1221 4.4255 3.3301 6.6211 2.4159 4.3911 5.2348 8.7173 8.5234 12.867 1.7053 2.1518 3.5687 4.1846 5.5645 6.1074 9.9787 9.6145 23.257 16.461 36.504 21.461 5.2984 1.9999 10.591 3.7036 15.666 5.1719 5.0756 1.4684 9.9551 2.6862 14.418 3.6875 12.559 2.8176 20.902 3.7767 22.002 3.9023 1.2251 0.67115 19.256 10.525 41.648 19.971 11.581 4.8858 24.137 9.5711 35.896 12.633 2.9401 0.76531 5.8243 1.4392 8.6406 1.9883 8.1093 1.5811 15.616 2.0674 22.201 0.71289 0.0575-2e-3 1.9431-0.08403 5.3164 0.1875 1.712 0.1378 3.7884 0.3652 6.1602 0.74023 4.7437 0.75005 10.675 2.0867 17.273 4.459 3.2989 1.1861 6.7641 2.6326 10.33 4.3926 3.5662 1.76 7.2346 3.8333 10.938 6.2793 3.7026 2.4461 7.4399 5.2655 11.148 8.5098 0.20568 0.19537 4.3499 4.1222 11.15 9.4922 5.2282 4.1286 11.944 9.0339 19.438 13.559 2.4979 1.5084 5.084 2.9745 7.7285 4.3555 7.9336 4.143 16.452 7.6007 25.053 8.998 2.8669 0.46578 5.7434 0.70263 8.6094 0.66016 1.433-0.0212 2.8658-0.12378 4.2871-0.31055 4.2641-0.56031 8.4401-1.8803 12.334-4.0527 3.8935-2.1724 7.5032-5.1982 10.627-9.166 1.0413-1.3226 2.0289-2.7494 2.9551-4.2852 4.6262-7.67 6.3051-15.549 5.7441-23.061-0.1122-1.5024-0.3138-2.9905-0.59961-4.459-0.57165-2.9368-1.4792-5.7973-2.6777-8.543-1.1984-2.7457-2.6578-5.3945-4.3301-7.9492-1.6723-2.5548-3.5573-5.0151-5.6094-7.3828-4.1041-4.7354-8.8729-9.1013-13.932-13.111-10.119-8.0203-21.475-14.597-31.432-19.424-9.9576-4.8273-18.18-7.8776-23.428-8.8535-1.9997-0.37185-4.0316-0.83526-6.0723-1.4023-4.0815-1.1342-8.2032-2.6851-12.203-4.7441-4.5411-2.3378-8.8707-5.4358-12.844-9.25h19.729c13.763 0 25-11.237 25-25v-100c0-13.763-11.237-25-25-25h-10.113c2.2801-5.0697 4.6508-10.417 7.332-17.008 3.5117-8.6327 7.2512-18.5 10.979-29.287 0.57348-0.80434 5.8893-8.2793 11.994-18.051 4.8298-7.7314 9.9636-16.374 13.189-24.156 0.78557-1.895 1.3066-3.6601 1.834-5.4277 1.5694-1.0014 7.4656-4.7762 15.703-11.58 3.1154-2.5729 6.393-5.4569 9.5938-8.5742 4.8011-4.6761 9.4698-9.8848 13.199-15.518 1.2431-1.8775 2.3822-3.8012 3.3867-5.7695s1.8735-4.0035 2.5625-6.0859c0.68906-2.0825 1.1977-4.213 1.4766-6.3633 0.55781-4.3006 0.20012-8.6891-1.4512-12.982-0.79028-2.0548-1.7782-3.903-2.9219-5.541-1.1436-1.6381-2.4437-3.0659-3.8555-4.2852-2.8236-2.4386-6.097-4.0394-9.4824-4.791s-6.8175-0.81177-10.199-0.43164c-1.691 0.19007-3.371 0.49066-5.0234 0.86914-1.6524 0.37849-3.2804 0.83596-4.8691 1.3398-12.329 3.9106-22.467 10.888-23.086 11.316-0.20561 0.10068-5.7735 2.8229-12.398 6.6348-3.373 1.9408-6.933 4.0366-10.201 6.293-1.6342 1.1282-3.196 2.2974-4.625 3.5059s-2.7238 2.4584-3.8281 3.748c-0.10952 0.12756-0.21247 0.26051-0.30859 0.39844 0 0-6.0255 8.673-13.268 18.203-5.4318 7.1473-11.942 14.955-16.279 19.422-1.4454 1.4891-2.6505 2.6068-3.4922 3.2051-6.1202 4.3504-10.47 10.999-13.617 16.58-1.5734 2.7909-2.8222 5.3622-3.6777 7.2344-0.85548 1.8722-1.3184 3.0469-1.3184 3.0469-0.0225 0.0562-0.04396 0.11289-0.06446 0.16992 0 0-1.323 3.7506-3.5195 9.3086-2.1966 5.5581-5.2666 12.922-8.7559 20.154-3.4892 7.2315-7.4307 14.321-11.062 19.07-1.8158 2.3742-3.5732 4.1405-4.8457 5.0254-1.2725 0.88488-1.679 0.78574-1.6816 0.78515-0.75401-0.16836-1.4993-0.65366-2.2227-1.5352-0.72344-0.88143-1.4247-2.1608-2.0879-3.9199-1.3265-3.5183-2.0915-8.2559-2.5547-12.164-0.66189-5.5844-1.0795-11.819-1.2832-18.283-0.20369-6.4636-0.19391-13.154-0.00977-19.643 0.1846-6.4896 0.54585-12.78 1.0488-18.443 0.34916-3.9305 0.84633-7.0054 1.3203-10.189 1.9002 0.0373 4.038-0.03653 6.4805-0.54492 1.6756-0.34874 3.4598-0.88779 5.2852-1.6621 5.4761-2.323 11.339-6.7604 15.869-14.502 3.9672-6.7787 7.5194-11.875 9.5977-16.99 0.69277-1.7047 1.2208-3.4121 1.5469-5.1836 0.48919-2.6572 0.29858-5.5304-0.6543-8.2109-0.3176-0.89347-0.71875-1.7661-1.209-2.6016-0.98051-1.6709-2.2272-3.2054-3.7461-4.6895-1.519-1.484-3.3107-2.9186-5.375-4.3828-3.6708-2.6037-7.4861-5.6358-11.576-8.6035-2.0448-1.4839-4.1581-2.9517-6.3555-4.3398-2.1974-1.3881-4.4794-2.6975-6.8613-3.8652-2.3818-1.1677-4.8892-2.1762-7.5117-2.957-2.6226-0.78077-5.3593-1.3334-8.1992-1.5898-1.42-0.12815-2.868-0.18305-4.3379-0.1543zm0.15039 4.9434c2.567-0.05698 5.0373 0.18509 7.4297 0.66602 1.1962 0.24047 2.3738 0.53952 3.5312 0.89258 4.6302 1.4122 8.965 3.6668 13.109 6.2969 2.0722 1.315 4.0972 2.7255 6.0879 4.1699 3.9814 2.8888 7.8259 5.9173 11.641 8.623 5.7221 4.0587 8.4403 7.4777 9.0371 11.133 0.19893 1.2185 0.16184 2.4638-0.07813 3.7676-0.24001 1.3037-0.68121 2.6651-1.2949 4.1191-1.8411 4.362-5.2186 9.5484-9.248 16.434-0.67155 1.1475-1.366 2.2044-2.0801 3.1797-0.71411 0.97527-1.448 1.869-2.1934 2.6855-0.74535 0.81645-1.5042 1.5555-2.2695 2.2266-2.296 2.0131-4.6566 3.4022-6.9297 4.3477-10.92 4.5419-38.957-0.47207-57.262-14.895 0 0 13.681 18.734 42.188 21.748l0.03711-0.00782c-0.42478 3.0024-0.81976 6.2042-1.1387 9.7363-1.0455 11.582-1.4817 25.527-1.0488 38.662 0.10821 3.2839 0.2713 6.5173 0.49219 9.6504 0.2209 3.1331 0.50008 6.1658 0.84179 9.0488 0.59836 5.0484 1.6361 11.674 4.2109 16.352 1.0299 1.8711 2.3065 3.4301 3.8984 4.4531 0.79596 0.51152 1.672 0.88849 2.6348 1.1035 1.7827 0.39806 3.6766-0.20237 5.627-1.5586 2.9255-2.0343 5.9759-5.7694 8.9648-10.381 2.9889-4.6118 5.916-10.101 8.5918-15.646 1.7838-3.6971 3.4556-7.4189 4.9609-10.922 4.5157-10.51 7.5273-19.053 7.5273-19.053s5.2905-13.432 13.277-21.527c1.141-1.1565 2.3366-2.204 3.5801-3.0879s2.7116-2.2046 4.3281-3.8379c8.0824-8.1665 19.883-24.166 25.967-32.641 2.4335-3.3902 3.9512-5.5762 3.9512-5.5762 0.83721-0.97778 1.9299-2.0085 3.1992-3.0645 8.8856-7.3914 26.482-15.996 26.482-15.996 0 0 5.86-4.0467 13.75-7.6426 3.9449-1.798 8.399-3.4833 12.879-4.4941 1.4932-0.33694 2.9872-0.59942 4.4688-0.76562 2.9631-0.33244 5.8686-0.28189 8.5723 0.31836 1.3518 0.30012 2.653 0.7382 3.8867 1.334 2.4674 1.1915 4.6634 3.0168 6.4453 5.6406 0.89092 1.3119 1.6776 2.8223 2.3438 4.5547 0.66628 1.7324 1.0763 3.4907 1.2617 5.2637 1.6681 15.956-14.954 33.153-28.52 44.355-3.0147 2.4896-5.879 4.6816-8.3574 6.5-4.9567 3.637-8.3711 5.7734-8.3711 5.7734s-16.888 3.6137-31.027-7.957c0 0 9.9121 14.469 28.873 14.209-0.0499 0.12071-0.06408 0.21239-0.11523 0.33399-1.0075 2.3975-2.2403 4.9656-3.6094 7.6055-1.369 2.6399-2.8755 5.3498-4.4375 8.0371-1.562 2.6873-3.179 5.3509-4.7656 7.8906-6.3464 10.159-12.215 18.357-12.215 18.357-1.8928 5.5037-3.7866 10.747-5.6524 15.707-5.0815 13.509-9.6939 24.112-13.719 32.93h-164.36c-13.763 0-25 11.237-25 25v100c0 13.763 11.237 25 25 25h153.47c10.569 11.906 24.432 17.976 37.01 20.314 3.1262 0.58132 8.5769 2.3921 15.195 5.2441 2.2063 0.9507 4.5418 2.0188 6.9648 3.1934 2.4229 1.1746 4.9344 2.4575 7.4883 3.8418s5.1488 2.8694 7.748 4.4492c2.5992 1.5798 5.201 3.2526 7.7598 5.0137 2.5588 1.7611 5.0771 3.6109 7.5098 5.5391 2.4327 1.9282 4.781 3.9364 7.002 6.0176 5.5524 5.2029 10.309 10.861 13.6 16.865 0.65829 1.2006 1.2573 2.4153 1.793 3.6426s1.0078 2.4666 1.4102 3.7188c0.40242 1.2522 0.73572 2.5176 0.99414 3.793 0.25843 1.2754 0.44121 2.5608 0.54492 3.8574 0.10371 1.2968 0.12813 2.6056 0.0664 3.9219-0.0617 1.3163-0.20943 2.6405-0.44726 3.9746-0.71353 4.0025-2.2429 8.0816-4.7344 12.213-0.83052 1.3769-1.7013 2.6482-2.6094 3.8184-0.90812 1.1702-1.8549 2.2389-2.834 3.2129-2.9372 2.9221-6.1774 4.9855-9.6328 6.332-2.3036 0.89769-4.701 1.4762-7.168 1.7793-6.1676 0.75771-12.763-0.20982-19.367-2.2441-5.2837-1.6275-10.573-3.9378-15.656-6.5918-5.0823-2.654-9.959-5.6518-14.412-8.6562-4.4532-3.0044-8.4848-6.0163-11.881-8.6953-6.7929-5.3579-11.045-9.3868-11.045-9.3867-1.9423-1.6993-3.892-3.2881-5.8457-4.7715-1.9537-1.4834-3.91-2.8624-5.8574-4.1445s-3.8872-2.4671-5.8106-3.5625c-3.8467-2.1908-7.6289-4.0228-11.273-5.5547-1.8222-0.76594-3.6084-1.4569-5.3535-2.0801-6.9803-2.4926-13.273-3.902-18.311-4.6953-7.557-1.19-12.293-0.99415-12.293-0.99415-7.4979 1.7456-17.904 0.42455-29.297-2.541-5.6962-1.4828-11.639-3.3777-17.588-5.5039-29.744-10.631-59.641-27.08-59.641-27.08s-9.4225-1.0302-22.51-3.9688c-10.906-2.4487-24.359-6.222-37.02-11.828-2.5322-1.1212-5.0322-2.3141-7.4746-3.5859s-4.8258-2.6221-7.125-4.0527c-6.8978-4.2917-13.033-9.3165-17.682-15.184-1.5498-1.9556-2.9882-3.9559-4.3262-5.9883-5.3523-8.1295-9.0746-16.767-11.652-25.064-0.64438-2.0742-1.2153-4.1263-1.7246-6.1445-1.0185-4.0365-1.7819-7.9364-2.3516-11.59-1.1396-7.3075-1.5042-13.636-1.584-18.139-0.01198-0.67636 0.020331-0.48705 0.019531-1.0781 45.37 11.162 45.889-31.781 45.889-31.781-11.205 40.276-45.785 25.682-45.785 25.682-4.7121-1.72-8.3259-3.7517-11.096-5.8301-1.3849-1.0392-2.5578-2.0909-3.5527-3.1211-0.99485-1.0302-1.81-2.0387-2.4785-2.9941-2.674-3.8223-2.9922-6.7832-2.9922-6.7832s-1.3716-6.826 0.23242-15.105c0.22916-1.1827 0.51757-2.3946 0.88086-3.6211 0.36329-1.2264 0.80148-2.4662 1.3242-3.7051 0.52278-1.2388 1.1322-2.4773 1.8398-3.6973 0.70761-1.22 1.5138-2.422 2.4316-3.5918 1.8356-2.3396 4.1168-4.547 6.9453-6.498 2.8284-1.951 6.2041-3.6471 10.229-4.959 2.012-0.65595 4.1863-1.2149 6.5352-1.6641 7.0469-1.3476 13.01-1.4812 18.051-0.80665 5.0411 0.67455 9.159 2.157 12.51 4.0371 1.1171 0.62668 2.1508 1.298 3.1035 1.998 2.8581 2.1004 5.0004 4.4627 6.5898 6.6797 1.0596 1.478 1.8735 2.8899 2.4863 4.1172s1.0256 2.2712 1.2852 3.0059c0.25959 0.73461 0.36719 1.1621 0.36719 1.1621 0.3973-0.3769 0.74681-0.88162 1.0566-1.4961 3.4251-6.7938 1.7567-26.913 0.64258-37.09l0.01562 0.01172c46.548 16.823 56.608-22.321 56.693-22.654 1.2532 11.528 2.1953 20.885 2.1953 20.885 1.3378 5.9922 2.7214 9.2182 3.9277 10.91 0.40209 0.56388 0.78604 0.95801 1.1406 1.2266 1.4183 1.0743 2.3887 0.15039 2.3887 0.15039 0 0-0.5622-7.9234 2.5644-16.529 0.19542-0.53784 0.36418-1.3113 0.50781-2.291 0.14363-0.97974 0.26226-2.1651 0.35938-3.5234 1.3597-19.016-1.5801-72.02-1.5801-72.02-0.37676-6.711-0.25982-11.7 0.24023-15.678 0.50004-3.9782 1.3833-6.9482 2.543-9.6191 0.77309-1.7807 1.6706-3.4286 2.6562-5.1562 5.5133-9.663 10.538-19.943 14.16-26.854 0.83912-1.6011 1.3204-2.9235 1.9297-4.1406 0.91391-1.8257 2.1169-3.4171 5.25-5.3633 1.0444-0.64874 2.3037-1.3363 3.8379-2.0859 3.0684-1.4993 7.2385-3.2427 12.996-5.4082 1.4394-0.54137 2.8483-0.98796 4.2324-1.3438 2.7682-0.71164 5.431-1.066 7.998-1.123l0.00195-0.001953zm-105.32 76.75c5.3874-0.18483 9.7006 0.53217 13.16 1.6387 3.0751 0.98354 5.476 2.2733 7.3535 3.5098 0.93875 0.61826 1.7465 1.2234 2.4434 1.7695 4.0572 3.1793 6.5946 6.5129 9.0234 11.471 0.60722 1.2395 1.4247 5.8421 2.3066 12.047 0.71833 5.0546 1.4074 11.586 2.1367 17.818-11.257 52.918-55.881 29.494-55.881 29.494-2.3278-1.0556-4.3146-2.2889-6.0137-3.6777-0.84948-0.6944-1.6284-1.43-2.3398-2.1992-1.4227-1.5383-2.5811-3.2202-3.5273-5.0234-5.2041-9.9174-3.9692-23.494-4.7344-36.943-0.22649-3.9813 0.14555-7.4086 0.88086-10.328 0.36767-1.4596 0.82636-2.7916 1.3477-4.0039 0.52133-1.2124 1.1056-2.3058 1.7226-3.2832 2.4686-3.9097 5.473-5.9875 7.1602-6.627 3.7055-1.4044 7.1447-2.507 10.34-3.3516 3.1952-0.84461 6.1458-1.4315 8.8692-1.8066 2.0424-0.28131 3.9562-0.4423 5.752-0.5039zm40.701 107.3h180c11.08 0 20 8.92 20 20v100c0 11.08-8.92 20-20 20h-180c-11.08 0-20-8.92-20-20v-100c0-11.08 8.92-20 20-20zm109.59 36.914c-1.6169 0.0656-3.1943 0.52284-4.5957 1.332l-39.998 23.094a5.0005 5.0005 0 0 0-0.00195 0c-6.4567 3.7294-6.4567 13.591 0 17.32a5.0005 5.0005 0 0 0 0.00195 0l39.996 23.094c6.4588 3.7313 15.004-1.2011 15.004-8.6602v-46.188c-3.3e-4 -5.6141-4.795-10.219-10.404-9.9922h-0.00195zm0.20313 4.9961a5.0006 5.0006 0 0 1 5.2031 4.9961v46.188a5.0006 5.0006 0 0 1-7.502 4.3301l-39.998-23.094a5.0006 5.0006 0 0 1 0-8.6602l39.998-23.094a5.0006 5.0006 0 0 1 2.2988-0.66601z" fill="#b2b2b2"/></svg>
